# xmcd
#
# Track frame offsets:
#	150
#	14201
#	28773
#	47505
#	60038
#	83467
#	118256
#	138215
#	157511
#	167900
#	185922
#	202361
#	219882
#
# Disc length: 2955 seconds
#
# Revision: 0
# Processed by: cddbd v1.5.1PL0 Copyright (c) Steve Scherf et al.
# Submitted via: dBpowerAMP V4.0
#
DISCID=ac0b890d
DTITLE=Darcy Perry Band - Don'T Hold Back
DYEAR=1900
DGENRE=Blues
TTITLE0=Don't Hold Back
TTITLE1=Leave This Town
TTITLE2=It's All Good
TTITLE3=Why You Put Me Down
TTITLE4=Night and Day
TTITLE5=Winter Blues
TTITLE6=Living at the House of Blues
TTITLE7=I don't need you any more
TTITLE8=Little Girl Blue
TTITLE9=I'm Just Trying To Live
TTITLE10=Wld at Heart
TTITLE11=Mary Jane
TTITLE12=unknown
EXTD=
EXTT0=
EXTT1=
EXTT2=
EXTT3=
EXTT4=
EXTT5=
EXTT6=
EXTT7=
EXTT8=
EXTT9=
EXTT10=
EXTT11=
EXTT12=
PLAYORDER=
